HIERARCHY
ROOT joint_Root
{
	OFFSET 0.0 0.0 0.0
	CHANNELS 6 Xposition Yposition Zposition Zrotation Xrotation Yrotation 
	JOINT Hips
	{
		OFFSET -17.1583 93.1646 452.98
		CHANNELS 6 Xposition Yposition Zposition Zrotation Xrotation Yrotation 
		JOINT Spine
		{
			OFFSET 15.7357 0.0 0.0
			CHANNELS 6 Xposition Yposition Zposition Zrotation Xrotation Yrotation 
			JOINT Chest
			{
				OFFSET 8.98455 -0.406207 0.0
				CHANNELS 6 Xposition Yposition Zposition Zrotation Xrotation Yrotation 
				JOINT Neck
				{
					OFFSET 16.3773 0.0 0.0
					CHANNELS 6 Xposition Yposition Zposition Zrotation Xrotation Yrotation 
					JOINT Head
					{
						OFFSET 6.45672 0.0 0.0
						CHANNELS 6 Xposition Yposition Zposition Zrotation Xrotation Yrotation 
						End Site
						{
							OFFSET 0.0 0.0 0.0
						}
					}
				}
				JOINT Shoulder_L
				{
					OFFSET 12.9942 -0.242716 4.98039
					CHANNELS 6 Xposition Yposition Zposition Zrotation Xrotation Yrotation 
					JOINT UpperArm_L
					{
						OFFSET 5.34809 0.0 0.0
						CHANNELS 6 Xposition Yposition Zposition Zrotation Xrotation Yrotation 
						JOINT LowerArm_L
						{
							OFFSET 24.3286 1.87007e-05 0.0
							CHANNELS 6 Xposition Yposition Zposition Zrotation Xrotation Yrotation 
							JOINT Hand_L
							{
								OFFSET 22.2916 0.0 0.0
								CHANNELS 6 Xposition Yposition Zposition Zrotation Xrotation Yrotation 
								End Site
								{
									OFFSET 0.0 0.0 0.0
								}
							}
						}
					}
				}
				JOINT Shoulder_R
				{
					OFFSET 12.9945 -0.242716 -4.98039
					CHANNELS 6 Xposition Yposition Zposition Zrotation Xrotation Yrotation 
					JOINT UpperArm_R
					{
						OFFSET -5.34813 0.0 0.0
						CHANNELS 6 Xposition Yposition Zposition Zrotation Xrotation Yrotation 
						JOINT LowerArm_R
						{
							OFFSET -24.3289 0.000322201 0.0
							CHANNELS 6 Xposition Yposition Zposition Zrotation Xrotation Yrotation 
							JOINT Hand_R
							{
								OFFSET -22.2915 -0.000108084 0.0
								CHANNELS 6 Xposition Yposition Zposition Zrotation Xrotation Yrotation 
								End Site
								{
									OFFSET 0.0 0.0 0.0
								}
							}
						}
					}
				}
			}
		}
		JOINT UpperLeg_L
		{
			OFFSET -2.19248 -6.46944 0.0
			CHANNELS 6 Xposition Yposition Zposition Zrotation Xrotation Yrotation 
			JOINT LowerLeg_L
			{
				OFFSET 39.0811 0.0 -1.23785e-05
				CHANNELS 6 Xposition Yposition Zposition Zrotation Xrotation Yrotation 
				JOINT Foot_L
				{
					OFFSET 40.9854 0.0 -1.26872e-05
					CHANNELS 6 Xposition Yposition Zposition Zrotation Xrotation Yrotation 
					JOINT Toes_L
					{
						OFFSET 11.7543 0.0 0.0
						CHANNELS 6 Xposition Yposition Zposition Zrotation Xrotation Yrotation 
						End Site
						{
							OFFSET 0.0 0.0 0.0
						}
					}
				}
			}
		}
		JOINT UpperLeg_R
		{
			OFFSET -2.19251 6.46944 0.0
			CHANNELS 6 Xposition Yposition Zposition Zrotation Xrotation Yrotation 
			JOINT LowerLeg_R
			{
				OFFSET -39.0811 -0.00228153 -0.0401928
				CHANNELS 6 Xposition Yposition Zposition Zrotation Xrotation Yrotation 
				JOINT Foot_R
				{
					OFFSET -40.9854 0.0 0.0
					CHANNELS 6 Xposition Yposition Zposition Zrotation Xrotation Yrotation 
					JOINT Toes_R
					{
						OFFSET -11.7543 0.0 0.0
						CHANNELS 6 Xposition Yposition Zposition Zrotation Xrotation Yrotation 
						End Site
						{
							OFFSET 0.0 0.0 0.0
						}
					}
				}
			}
		}
	}
}
MOTION
Frames:	4
Frame Time:	0.0333333
0.000000 0.000000 0.000000 0.000000 0.000000 -0.000000 4.689660 87.659800 -438.001000 90.735500 -2.392500 -22.183400 15.735700 0.000005 -0.000001 119.354000 84.568600 -119.181000 8.984550 -0.406207 -0.000000 1.701680 5.312780 0.267261 16.377300 -0.000001 -0.000001 -12.097800 0.700855 0.105008 6.456720 -0.000001 -0.000000 -3.601690 -0.320081 -3.987500 12.994200 -0.242716 4.980390 -91.199800 3.514060 -71.136600 5.348090 -0.000007 -0.000001 -39.968200 -18.949700 24.741400 24.328600 0.000019 0.000005 1.489670 36.804300 -2.485980 22.291600 -0.000001 0.000005 24.444400 4.058870 23.131000 12.994500 -0.242716 -4.980390 89.950900 0.226768 -77.833100 -5.348130 -0.000001 -0.000004 -58.294400 6.113300 -21.732400 -24.328900 0.000322 -0.000009 -5.265240 -1.090070 -78.286800 -22.291500 -0.000108 -0.000004 20.593000 5.567450 -9.462310 -2.192480 -6.469440 -0.000000 -179.639000 2.392280 -60.088100 39.081100 -0.000007 -0.000012 0.034358 -0.004499 82.526600 40.985400 -0.000006 -0.000013 -0.493677 1.369390 -63.033500 11.754300 -0.000000 0.000003 0.001846 0.041243 -14.903700 -2.192510 6.469440 -0.000001 -178.778000 10.304200 165.214000 -39.081100 -0.002282 -0.040193 0.050942 -0.066768 35.515400 -40.985400 0.000008 0.000006 -9.215800 -1.245470 -77.935600 -11.754300 -0.000006 -0.000006 -0.015013 -0.137900 -22.199400
0.000000 0.000000 0.000000 0.000000 0.000000 -0.000000 5.129810 90.542200 -430.678000 94.037800 -0.922284 -24.773700 15.735700 0.000005 -0.000001 127.723000 85.620300 -128.794000 8.984550 -0.406207 -0.000000 -0.785221 5.438280 -2.105110 16.377300 -0.000001 -0.000001 -12.412500 -0.447101 0.210926 6.456720 -0.000001 -0.000000 -2.601540 -2.292270 -2.971280 12.994200 -0.242716 4.980390 -90.555800 1.724290 -72.135700 5.348090 -0.000007 -0.000001 -39.381700 -18.744600 24.387900 24.328600 0.000019 0.000005 1.576210 40.625600 -2.419220 22.291600 -0.000001 0.000005 38.490000 3.417240 31.884300 12.994500 -0.242716 -4.980390 90.156100 -0.743056 -78.130000 -5.348130 -0.000001 -0.000004 -60.667100 4.130040 -18.063000 -24.328900 0.000322 -0.000009 -6.010130 -0.648271 -83.878300 -22.291500 -0.000108 -0.000004 25.811100 5.651010 -14.821700 -2.192480 -6.469440 -0.000000 178.061000 4.887600 -62.045600 39.081100 -0.000007 -0.000012 0.018822 -0.007488 68.289600 40.985400 -0.000006 -0.000013 -1.817800 4.939870 -66.921200 11.754300 -0.000000 0.000003 0.001902 0.043150 -14.826400 -2.192510 6.469440 -0.000001 178.510000 12.400300 170.014000 -39.081100 -0.002282 -0.040193 0.040505 -0.080167 24.888400 -40.985400 0.000008 0.000006 -4.903010 -5.252570 -61.586600 -11.754300 -0.000006 -0.000006 -0.059567 -0.330364 -30.214700
0.000000 0.000000 0.000000 0.000000 0.000000 -0.000000 5.215230 92.666500 -423.175000 94.799200 0.315284 -26.096600 15.735700 0.000005 -0.000001 134.954000 86.117600 -136.313000 8.984550 -0.406207 -0.000000 -2.207140 5.602800 -2.609960 16.377300 -0.000001 -0.000001 -13.119700 -1.135740 0.209043 6.456720 -0.000001 -0.000000 -2.015910 -3.260290 -2.858000 12.994200 -0.242716 4.980390 -90.286300 0.909153 -72.521700 5.348090 -0.000007 -0.000001 -41.050000 -18.485400 22.771000 24.328600 0.000019 0.000005 1.712390 41.028300 -2.607420 22.291600 -0.000001 0.000005 41.639700 3.383900 32.399600 12.994500 -0.242716 -4.980390 90.341200 -1.673060 -78.472100 -5.348130 -0.000001 -0.000004 -63.111500 4.028320 -15.166900 -24.328900 0.000322 -0.000009 -2.228040 -0.172532 -85.563100 -22.291500 -0.000108 -0.000004 31.070000 5.655210 -15.545700 -2.192480 -6.469440 -0.000000 178.330000 5.627870 -60.140300 39.081100 -0.000007 -0.000012 0.009828 -0.007770 51.655900 40.985400 -0.000006 -0.000013 -4.004990 10.373400 -69.752000 11.754300 -0.000000 0.000003 0.002015 0.047274 -14.659200 -2.192510 6.469440 -0.000001 178.491000 14.458200 174.394000 -39.081100 -0.002282 -0.040193 0.030837 -0.093531 16.389500 -40.985400 0.000008 0.000006 2.323730 -6.408000 -42.883600 -11.754300 -0.000006 -0.000006 -0.059061 -0.328711 -30.144600
0.000000 0.000000 0.000000 0.000000 0.000000 -0.000000 4.861610 93.412400 -415.045000 92.619900 2.196190 -24.668800 15.735700 0.000005 -0.000001 133.092000 85.988100 -133.502000 8.984550 -0.406207 -0.000000 -1.889660 5.514780 -0.729038 16.377300 -0.000001 -0.000001 -14.207300 -1.297020 0.466426 6.456720 -0.000001 -0.000000 -1.544010 -3.464610 -3.486740 12.994200 -0.242716 4.980390 -90.487600 1.510430 -72.108700 5.348090 -0.000007 -0.000001 -44.121000 -17.281100 19.527600 24.328600 0.000019 0.000005 1.454470 38.011500 -2.360810 22.291600 -0.000001 0.000005 34.856200 3.714190 28.091100 12.994500 -0.242716 -4.980390 90.371500 -1.798710 -78.329300 -5.348130 -0.000001 -0.000004 -65.115600 5.002220 -12.815900 -24.328900 0.000322 -0.000009 -2.706480 -0.332222 -83.028100 -22.291500 -0.000108 -0.000004 30.153600 5.654900 -15.575800 -2.192480 -6.469440 -0.000000 -179.342000 4.589680 -54.551200 39.081100 -0.000007 -0.000012 -0.004776 0.006334 37.028800 40.985400 -0.000006 -0.000013 -5.110530 14.673800 -72.669600 11.754300 -0.000000 0.000003 0.001935 0.044299 -14.779800 -2.192510 6.469440 -0.000001 -179.296000 16.543400 178.271000 -39.081100 -0.002282 -0.040193 0.054589 -0.182415 15.695800 -40.985400 0.000008 0.000006 3.240590 -6.064900 -31.018600 -11.754300 -0.000006 -0.000006 0.002467 0.091721 -12.853600
